<svg preserveAspectRatio="none" viewBox="273.6128 777.4208000000001 1519.616 479.232" style="max-height: 500px" xmlns="http://www.w3.org/2000/svg" version="1.1" width="1519.616" height="479.232">
<path d="M 0 0 L 2048 0 L 2048 2048 L 0 2048 L 0 0 z" fill="transparent" transform="translate(0,0)"/>
<path d="M 501.44 811.411&#10;    C 589.471 802.893 680.618 882.744 671.38 973.531&#10;    C 669.338 993.595 659.955 1008.16 649.727 1024.87&#10;    C 677.52 1078.4 655.038 1141.14 612.298 1179.43&#10;    C 581.21 1207.28 537.303 1217.29 496.533 1214.59&#10;    C 450.436 1211.24 416.112 1195.33 380.429 1165.73&#10;    C 338.362 1131.19 316.264 1091.61 310.578 1038.04&#10;    C 299.845 936.93 400.111 819.455 501.44 811.411&#10;    Z&#10;&#10;    M 499.623 846.389&#10;    C 525.382 843.705 551.323 849.34 573.647 862.469&#10;    C 606.755 881.689 631.861 912.812 635.077 951.971&#10;    C 636.379 967.829 633.354 984.759 625.129 998.516&#10;    C 591.936 973.436 562.583 934.592 530.647 907.291&#10;    C 517.45 896.009 501.482 897.052 488.604 908.025&#10;    C 461.426 931.183 436.795 957.256 411.646 982.549&#10;    C 398.032 996.413 379.742 1012.43 388.531 1034.74&#10;    C 400.655 1065.51 437.394 1092.59 458.69 1117.89&#10;    C 484.867 1148.98 508.35 1154.64 540.594 1126.86&#10;    C 569.759 1099.87 594.13 1079.61 622.885 1050.5&#10;    C 632.893 1081.36 623.281 1113.28 604.08 1138.26&#10;    C 557.076 1199.4 456.356 1183.27 402.897 1140.92&#10;    C 370.655 1115.12 350.093 1077.48 345.804 1036.41&#10;    C 339.84 981.491 365.598 936.873 402.787 898.38&#10;    C 429.712 870.511 460.503 850.736 499.623 846.389&#10;    Z&#10;&#10;    M 508.939 934.75&#10;    C 513.706 937.671 538.498 964.854 544.72 970.992&#10;    C 562.887 989.173 581.955 1006.43 601.853 1022.7&#10;    C 597.886 1026.58 593.848 1030.51 589.726 1034.23&#10;    C 563.722 1057.69 539.233 1083.01 512.144 1105.2&#10;    C 509.988 1106.76 505.336 1110.08 503.352 1108.84&#10;    C 482.79 1095.94 431.956 1040.66 420.203 1024.12&#10;    C 433.125 1002.74 488.452 953.369 508.939 934.75&#10;    Z" fill-rule="evenodd" fill="rgb(255, 113, 51)"/>

<path d="M 1241.84 926.879 L 1280.05 926.76 C 1279.62 985.924 1279.94 1045.09 1280.99 1104.25 L 1250.76 1104.54 C 1251.3 1081.32 1250.28 1054.04 1249.98 1030.56 L 1248.83 982.727 C 1233.78 1012.44 1216.82 1055.88 1205.82 1088 L 1176.8 1087.85 C 1161.9 1050.92 1150.62 1016.73 1133.97 979.776 C 1133.21 1021.26 1133.08 1062.75 1133.58 1104.24 C 1123.02 1104.45 1112.47 1104.47 1101.92 1104.33 C 1101.45 1083.75 1102.2 1060.38 1102.32 1039.6 C 1102.55 1002.07 1102.52 964.536 1102.22 927.006 L 1143.33 926.827 C 1160.52 967.176 1175.14 1008.65 1191.91 1048.93 C 1208.94 1008.16 1224.11 967.555 1241.84 926.879 z" fill="rgb(255, 113, 51)" transform="translate(0,0)"/>
<path d="M 1315.65 927.083&#10;    C 1344.06 927.047 1379.56 925.167 1406.98 929.914&#10;    C 1444.22 936.358 1451.34 998.055 1428.27 1022.58&#10;    C 1413.83 1037.95 1397.8 1038.93 1378.22 1039.71&#10;    L 1347.91 1039.93&#10;    L 1348.01 1104.13&#10;    L 1315.59 1104.26&#10;    C 1316.91 1048.39 1316.37 983.063 1315.65 927.083&#10;    Z&#10;&#10;    M 1347.95 956.001&#10;    C 1361.93 955.999 1388.17 953.21 1399.26 959.659&#10;    C 1413.34 967.842 1409.06 992.388 1401.33 1003.54&#10;    C 1390.2 1013.68 1363.32 1011.18 1347.88 1011.15&#10;    L 1347.95 956.001&#10;    Z" fill-rule="evenodd" fill="rgb(255, 113, 51)"/>

<path d="M 983.71 926.264&#10;    C 995.98 925.953 1008.9 926.086 1021.23 926.021&#10;    C 1023.92 937.229 1028.26 950.26 1032.1 961.258&#10;    C 1048.61 1008.54 1063.11 1057.01 1080.02 1104.08&#10;    L 1043.11 1104.73&#10;    C 1039.49 1090.73 1035.25 1077.02 1031.63 1062.9&#10;    L 1012.77 1063.02&#10;    L 964.879 1062.93&#10;    C 961.251 1075.89 955.716 1091.26 951.419 1104.21&#10;    C 939.534 1104.37 927.648 1104.39 915.763 1104.27&#10;    C 935.655 1046.58 962.037 984.079 983.71 926.264&#10;    Z&#10;&#10;    M 1000.64 953.407&#10;    C 1003 959.363 1006.05 971.954 1008 978.796&#10;    C 1013.68 998.074 1018.99 1017.45 1023.95 1036.93&#10;    L 1000.68 1037.28&#10;    L 974.025 1037.07&#10;    Z" fill-rule="evenodd" fill="rgb(255, 113, 51)"/>

<path d="M 1691.58 924.42 C 1726.87 924.898 1744.2 937.138 1755.46 971.344 C 1745.41 973.799 1736.78 975.87 1726.53 977.635 C 1715.97 954.651 1688.4 942.406 1667.24 960.548 C 1642.91 981.41 1685.64 995.121 1701.42 999.037 C 1725.05 1004.9 1758.91 1016.2 1758.13 1046.86 C 1758.43 1096.4 1724.11 1108.61 1682.63 1108.27 C 1646.73 1105.64 1630.25 1087.07 1620.5 1054.25 C 1630.12 1052.18 1640.55 1050.32 1650.25 1048.43 C 1654.18 1056.37 1657.89 1062.66 1664.73 1068.56 C 1673.68 1076.32 1685.4 1080.11 1697.2 1079.05 C 1712.53 1077.8 1727.29 1068.74 1724.66 1051.41 C 1721.87 1033.05 1696.42 1029.8 1681.81 1025.26 C 1667.97 1021.48 1654.18 1017.65 1642.42 1009.08 C 1623.15 995.033 1625.69 963.087 1640.26 946.441 C 1654.07 930.662 1671.27 925.988 1691.58 924.42 z" fill="rgb(255, 113, 51)" transform="translate(0,0)"/>
<path d="M 1568.61 927.067 L 1600.54 927.002 L 1600.69 958.25 L 1600.86 1007.92 C 1600.93 1034.19 1603.61 1068.44 1584.15 1088.9 C 1560.59 1113.91 1505.07 1115.54 1480.85 1091.28 C 1458.24 1068.63 1461.89 1026.4 1461.91 996.642 L 1461.93 927.053 L 1494.92 927 L 1494.83 999.052 C 1494.85 1015.76 1495.3 1029.52 1496.43 1046.38 C 1499.27 1088.82 1560.58 1088.85 1566.75 1050.59 C 1568.98 1036.83 1568.44 1019.68 1568.59 1005.12 C 1568.94 979.106 1568.94 953.085 1568.61 927.067 z" fill="rgb(255, 113, 51)" transform="translate(0,0)"/>
<path d="M 828.62 924.393 C 870.105 920.724 898.544 935.959 909.189 977.445 C 900.554 981.117 890.987 984.155 882.058 987.192 C 872.612 964.724 859.243 949.222 832.158 952.419 C 820.539 953.697 809.965 959.717 802.935 969.055 C 792.193 983.193 791.936 997.127 791.588 1014.2 C 790.947 1045.68 803.418 1084.43 842.981 1077.88 C 856.783 1075.59 865.084 1069.41 873.11 1057.91 C 876.764 1052.1 878.449 1048.19 881.252 1041.94 L 910.997 1050.45 C 899.469 1082.33 885.989 1101.38 850.685 1107.15 C 799.624 1115.59 765.045 1088.49 759.614 1037.12 C 753.789 982.026 766.07 931.176 828.62 924.393 z" fill="rgb(255, 113, 51)" transform="translate(0,0)"/>
</svg>